<svg width="512" height="512" viewBox="0 0 512 512" fill="none" xmlns="http://www.w3.org/2000/svg">
  <rect width="512" height="512" fill="black"/>
  <rect x="131" y="191" width="250" height="130" fill="white"/>
  <path d="M254.429 256.364C254.429 265.881 252.625 273.977 249.017 280.653C245.437 287.33 240.551 292.429 234.358 295.952C228.193 299.446 221.261 301.193 213.562 301.193C205.806 301.193 198.846 299.432 192.681 295.909C186.517 292.386 181.645 287.287 178.065 280.611C174.485 273.935 172.696 265.852 172.696 256.364C172.696 246.847 174.485 238.75 178.065 232.074C181.645 225.398 186.517 220.312 192.681 216.818C198.846 213.295 205.806 211.534 213.562 211.534C221.261 211.534 228.193 213.295 234.358 216.818C240.551 220.312 245.437 225.398 249.017 232.074C252.625 238.75 254.429 246.847 254.429 256.364ZM235.721 256.364C235.721 250.199 234.798 245 232.951 240.767C231.133 236.534 228.562 233.324 225.238 231.136C221.914 228.949 218.022 227.855 213.562 227.855C209.102 227.855 205.21 228.949 201.886 231.136C198.562 233.324 195.977 236.534 194.13 240.767C192.312 245 191.403 250.199 191.403 256.364C191.403 262.528 192.312 267.727 194.13 271.96C195.977 276.193 198.562 279.403 201.886 281.591C205.21 283.778 209.102 284.872 213.562 284.872C218.022 284.872 221.914 283.778 225.238 281.591C228.562 279.403 231.133 276.193 232.951 271.96C234.798 267.727 235.721 262.528 235.721 256.364ZM278.218 300H258.445L288.573 212.727H312.351L342.436 300H322.664L300.803 232.67H300.121L278.218 300ZM276.982 265.696H323.686V280.099H276.982V265.696Z" fill="black"/>
</svg>
